<svg xmlns="http://www.w3.org/2000/svg" width="194.675" height="19.991" viewBox="0 0 194.675 19.991">
  <g id="그룹_65261" data-name="그룹 65261" transform="translate(1032.04 471)">
    <g id="Layer_1" data-name="Layer 1" transform="translate(-1032.04 -471)">
      <g id="그룹_22" data-name="그룹 22">
        <rect id="사각형_10" data-name="사각형 10" width="19.981" height="19.981" transform="translate(0.01)" fill="#ffa727"/>
        <circle id="타원_7" data-name="타원 7" cx="8.82" cy="8.82" r="8.82" transform="translate(1.176 1.176)" fill="#ffff50"/>
        <path id="패스_89" data-name="패스 89" d="M19.991,19.991V0h-.107L0,19.884v.107Z" fill="#cfc"/>
        <path id="패스_90" data-name="패스 90" d="M.98,40.905H20.849V23.9A20.112,20.112,0,0,1,.98,40.905Z" transform="translate(-0.858 -20.914)" fill="#6cf"/>
      </g>
    </g>
    <g id="Layer_1-2" data-name="Layer 1" transform="translate(-1004.976 -471)">
      <g id="그룹_24" data-name="그룹 24">
        <path id="패스_91" data-name="패스 91" d="M15.537,20.139l-1.672-4.2H4.282l-1.672,4.2H0L7.6,1.23h2.919l7.626,18.909H15.535ZM9.072,3.329,4.962,13.846h8.192Z" transform="translate(0 -0.919)"/>
        <path id="패스_92" data-name="패스 92" d="M83.694,0c5.585,0,9.384,4.2,9.384,9.781s-3.8,9.781-9.384,9.781-9.384-4.2-9.384-9.781S78.081,0,83.694,0Zm0,2.1c-4.252,0-6.945,3.26-6.945,7.681s2.694,7.681,6.945,7.681,6.945-3.288,6.945-7.681S87.917,2.1,83.694,2.1Z" transform="translate(-55.515)"/>
        <path id="패스_93" data-name="패스 93" d="M174.014,20.139l-4.821-7.512h-3.771v7.512H163.07V1.23h7.6c3.46,0,5.926,2.211,5.926,5.7a5.168,5.168,0,0,1-4.9,5.5l5.1,7.712h-2.777Zm-3.629-16.81h-4.962v7.229h4.962a3.536,3.536,0,0,0,3.771-3.63,3.513,3.513,0,0,0-3.771-3.6Z" transform="translate(-121.825 -0.919)"/>
        <path id="패스_94" data-name="패스 94" d="M237.574,0c5.585,0,9.384,4.2,9.384,9.781s-3.8,9.781-9.384,9.781-9.384-4.2-9.384-9.781S231.961,0,237.574,0Zm0,2.1c-4.252,0-6.945,3.26-6.945,7.681s2.694,7.681,6.945,7.681,6.945-3.288,6.945-7.681S241.8,2.1,237.574,2.1Z" transform="translate(-170.475)"/>
        <path id="패스_95" data-name="패스 95" d="M320.615,20.139l-1.672-4.2h-9.583l-1.672,4.2H305.08l7.6-18.909h2.919l7.626,18.909h-2.608ZM314.15,3.329l-4.11,10.517h8.192Z" transform="translate(-227.917 -0.919)"/>
        <path id="패스_96" data-name="패스 96" d="M392.07,21.242V2.94h2.277V19.213h8.51v2.029Z" transform="translate(-286.452 -2.354)"/>
        <path id="패스_97" data-name="패스 97" d="M433.047,21.242l-1.619-4.059h-9.275l-1.619,4.059H418.01l7.357-18.3h2.827l7.381,18.3h-2.524ZM426.79,4.969l-3.98,10.18h7.931L426.79,4.969Z" transform="translate(-300.29 -2.354)"/>
        <path id="패스_98" data-name="패스 98" d="M460.76,21.242V2.94h8.15c3.182,0,5.132,1.922,5.132,4.665a4.161,4.161,0,0,1-3.21,4.2,4.571,4.571,0,0,1,3.569,4.5c0,2.935-1.95,4.941-5.3,4.941h-8.342Zm2.277-10.376h5.487a2.844,2.844,0,0,0,3.158-2.935,2.862,2.862,0,0,0-3.158-2.963h-5.487v5.9Zm0,8.346h5.6c2.141,0,3.4-1.208,3.4-3.154a3.106,3.106,0,0,0-3.4-3.154h-5.6v6.312Z" transform="translate(-323.096 -2.354)"/>
        <path id="패스_99" data-name="패스 99" d="M496.759,16.617a7.739,7.739,0,0,0,5.762,2.608c3.266,0,4.311-1.754,4.311-3.154,0-2.2-2.221-2.8-4.637-3.457-2.935-.77-6.2-1.591-6.2-5.188,0-3.019,2.692-5.076,6.284-5.076a8.6,8.6,0,0,1,6.5,2.552L507.41,6.577a7.014,7.014,0,0,0-5.3-2.2c-2.2,0-3.76,1.18-3.76,2.911,0,1.838,2.113,2.389,4.446,3.019,2.99.8,6.4,1.731,6.4,5.57,0,2.664-1.81,5.379-6.751,5.379a9.068,9.068,0,0,1-7.026-2.911l1.344-1.731Z" transform="translate(-341.586 -2.039)"/>
      </g>
    </g>
  </g>
</svg>
