<svg xmlns="http://www.w3.org/2000/svg" width="186.116" height="20.852" viewBox="0 0 186.116 20.852">
  <g id="그룹_62485" data-name="그룹 62485" transform="translate(85.732 -174.266)">
    <g id="그룹_1891" data-name="그룹 1891" transform="translate(-85.732 174.266)">
      <g id="그룹_1888" data-name="그룹 1888" transform="translate(0 0)">
        <g id="그룹_1887" data-name="그룹 1887">
          <path id="패스_3535" data-name="패스 3535" d="M425.26,187.886h-2.281c-.276-.006-.518-.009-.685,0l-4.55,8.012.925,1.613a.649.649,0,0,0,1.128,0l4.027-7.091h0Z" transform="translate(-406.672 -182.178)" fill="#d47645"/>
          <path id="패스_3536" data-name="패스 3536" d="M327.052,147.316l-.109.151a7.788,7.788,0,0,1-13.507-7.552l4.49,7.906a.649.649,0,0,0,1.127,0l3.366-5.853.427-.743-.651-1.943a.649.649,0,0,0-1.179-.116l-2.527,4.42-3.46-6.093a7.769,7.769,0,0,1,9.66-1.216c.219.131.433.286.64.439.068.051.136.1.2.156.15.118.3.241.438.371h2.951c-.612-1.946-2.562-3.233-4.359-3.974a10.4,10.4,0,0,0-2.216-.637,10.251,10.251,0,0,0-1.721-.146,10.426,10.426,0,1,0,9.179,15.365l.291-.539Z" transform="translate(-310.198 -132.49)" fill="#044777"/>
        </g>
      </g>
      <g id="그룹_1890" data-name="그룹 1890" transform="translate(26.525 3.325)">
        <path id="패스_3537" data-name="패스 3537" d="M170.053,372.9a4.326,4.326,0,0,1-1.815,1,5.816,5.816,0,0,1-3.23.08,2.611,2.611,0,0,1-.986-.584,2.926,2.926,0,0,1-.7-1.07,4.539,4.539,0,0,1-.269-1.662v-1.35a5.262,5.262,0,0,1,.29-1.9,3,3,0,0,1,.724-1.122,2.313,2.313,0,0,1,.979-.544,6.234,6.234,0,0,1,3,.04,4.607,4.607,0,0,1,1.657.819l.307.228,1.857-2.326-.27-.191a7.878,7.878,0,0,0-2.468-1.188,11.127,11.127,0,0,0-2.888-.342,9.105,9.105,0,0,0-2.544.344,5.848,5.848,0,0,0-2.11,1.1,5.234,5.234,0,0,0-1.423,1.886,6.412,6.412,0,0,0-.512,2.665v2.353a6.129,6.129,0,0,0,.525,2.643,5.194,5.194,0,0,0,1.424,1.828,5.776,5.776,0,0,0,2.08,1.055,9.04,9.04,0,0,0,2.437.325c.424,0,.88-.019,1.355-.056a8.435,8.435,0,0,0,1.5-.259,9.485,9.485,0,0,0,1.522-.552,6.115,6.115,0,0,0,1.485-.979l.217-.192-1.835-2.334Z" transform="translate(-159.654 -362.791)" fill="#044777"/>
        <path id="패스_3538" data-name="패스 3538" d="M228.923,364.2a6.084,6.084,0,0,0-2.15-1.071,9.707,9.707,0,0,0-5.038,0,6.089,6.089,0,0,0-2.15,1.071,5.15,5.15,0,0,0-1.47,1.878,6.411,6.411,0,0,0-.534,2.733v2.17a6.522,6.522,0,0,0,.534,2.759,5.1,5.1,0,0,0,1.46,1.879,5.937,5.937,0,0,0,2.142,1.054,10.084,10.084,0,0,0,5.073,0,5.944,5.944,0,0,0,2.142-1.054,5.1,5.1,0,0,0,1.46-1.879,6.518,6.518,0,0,0,.534-2.759v-2.17a6.41,6.41,0,0,0-.534-2.733A5.159,5.159,0,0,0,228.923,364.2Zm-5.97,9.853a2.394,2.394,0,0,1-1-.529,2.681,2.681,0,0,1-.7-1.061,4.99,4.99,0,0,1-.27-1.774V369.1a4.99,4.99,0,0,1,.27-1.774,2.682,2.682,0,0,1,.7-1.061,2.4,2.4,0,0,1,1-.529,5.134,5.134,0,0,1,1.3-.16,5.225,5.225,0,0,1,1.322.16,2.429,2.429,0,0,1,1,.529,2.591,2.591,0,0,1,.685,1.057,5.171,5.171,0,0,1,.261,1.777v1.587a5.175,5.175,0,0,1-.26,1.777,2.6,2.6,0,0,1-.686,1.058,2.4,2.4,0,0,1-1,.529A5.466,5.466,0,0,1,222.954,374.053Z" transform="translate(-203.774 -362.795)" fill="#464647"/>
        <path id="패스_3539" data-name="패스 3539" d="M379.122,364.2a6.085,6.085,0,0,0-2.15-1.071,9.707,9.707,0,0,0-5.038,0,6.088,6.088,0,0,0-2.15,1.071,5.151,5.151,0,0,0-1.469,1.878,6.409,6.409,0,0,0-.534,2.733v2.17a6.518,6.518,0,0,0,.534,2.759,5.094,5.094,0,0,0,1.459,1.879,5.941,5.941,0,0,0,2.142,1.054,10.085,10.085,0,0,0,5.074,0,5.944,5.944,0,0,0,2.142-1.054,5.094,5.094,0,0,0,1.46-1.879,6.516,6.516,0,0,0,.534-2.759v-2.17a6.409,6.409,0,0,0-.534-2.733A5.16,5.16,0,0,0,379.122,364.2Zm-5.97,9.853a2.4,2.4,0,0,1-1-.529,2.686,2.686,0,0,1-.7-1.061,4.989,4.989,0,0,1-.27-1.774V369.1a4.99,4.99,0,0,1,.27-1.774,2.685,2.685,0,0,1,.7-1.061,2.4,2.4,0,0,1,1-.529,5.133,5.133,0,0,1,1.3-.16,5.227,5.227,0,0,1,1.322.16,2.429,2.429,0,0,1,1,.529,2.591,2.591,0,0,1,.686,1.057,5.171,5.171,0,0,1,.261,1.777v1.587a5.177,5.177,0,0,1-.26,1.777,2.6,2.6,0,0,1-.686,1.058,2.4,2.4,0,0,1-1,.529A5.466,5.466,0,0,1,373.153,374.053Z" transform="translate(-318.172 -362.795)" fill="#464647"/>
        <path id="패스_3540" data-name="패스 3540" d="M443.646,374.121q-.643-1.273-1.31-2.569a3.877,3.877,0,0,0,1.566-1.268,3.5,3.5,0,0,0,.633-2.04v-.675a3.6,3.6,0,0,0-.35-1.577,3.517,3.517,0,0,0-1.025-1.257,5.039,5.039,0,0,0-1.633-.811,7.514,7.514,0,0,0-2.177-.291H433.34v13.8h3.383v-5.271h2.425l2.5,5.271h3.691l-.237-.46Q444.359,375.534,443.646,374.121Zm-6.924-7.887h2.3a2.717,2.717,0,0,1,1.69.394,1.247,1.247,0,0,1,.464,1.014v.547a1.173,1.173,0,0,1-.485.978,3.324,3.324,0,0,1-1.9.393h-2.071Z" transform="translate(-368.105 -363.432)" fill="#044777"/>
        <path id="패스_3541" data-name="패스 3541" d="M553.425,371.65h6.532V369.1h-6.532v-2.889h6.966v-2.583H550.064v13.8h10.472v-2.583h-7.111Z" transform="translate(-457.006 -363.431)" fill="#044777"/>
        <path id="패스_3542" data-name="패스 3542" d="M615.419,376.973q-.744-1.439-1.456-2.852-.642-1.273-1.31-2.569a3.878,3.878,0,0,0,1.567-1.268,3.5,3.5,0,0,0,.633-2.04v-.675a3.608,3.608,0,0,0-.35-1.577,3.52,3.52,0,0,0-1.026-1.257,5.032,5.032,0,0,0-1.632-.811,7.514,7.514,0,0,0-2.177-.291h-6.011v13.8h3.383v-5.271h2.425l2.5,5.271h3.691Zm-8.38-10.739h2.3a2.717,2.717,0,0,1,1.69.394,1.247,1.247,0,0,1,.464,1.014v.547a1.174,1.174,0,0,1-.485.978,3.325,3.325,0,0,1-1.9.393h-2.071Z" transform="translate(-497.825 -363.432)" fill="#044777"/>
        <path id="패스_3543" data-name="패스 3543" d="M498.091,369.776l6.109-6.144h-4.041l-5.333,5.468v-5.468h-3.383v13.8h3.383v-4.521l.978-.941,4.353,5.462h4.265Z" transform="translate(-412.358 -363.431)" fill="#044777"/>
        <g id="그룹_1889" data-name="그룹 1889" transform="translate(27.606 0.971)">
          <path id="패스_3544" data-name="패스 3544" d="M332.821,366.872h-2.857c-.346-.008-.648-.011-.859,0l-6.03,10.593,1.158,2.02a.813.813,0,0,0,1.412,0l5.043-8.881h0Z" transform="translate(-311.728 -366.865)" fill="#d47645"/>
          <path id="패스_3545" data-name="패스 3545" d="M282.627,379.483a.813.813,0,0,0,1.412,0l4.216-7.331.535-.93-.815-2.434a.813.813,0,0,0-1.477-.145l-3.164,5.536-4.149-7.318h-3.716Z" transform="translate(-275.469 -366.865)" fill="#044777"/>
        </g>
      </g>
    </g>
    <g id="그룹_1892" data-name="그룹 1892" transform="translate(64.871 181.141)">
      <path id="패스_3546" data-name="패스 3546" d="M332.332,448.777h2.4l.616,4.443.393,3.093h.052c.184-1.035.38-2.084.577-3.093l1-4.443h1.966l1.023,4.443c.2,1,.367,2.045.563,3.093h.066c.118-1.048.249-2.084.367-3.093l.629-4.443h2.228l-1.691,9.752h-2.949l-.878-4.247c-.158-.747-.289-1.534-.38-2.268h-.065c-.118.734-.236,1.521-.38,2.268l-.852,4.247h-2.9Z" transform="translate(-332.332 -448.777)" fill="#d47645"/>
      <path id="패스_3547" data-name="패스 3547" d="M401.467,448.777h6.187v1.94h-3.841v1.809h3.264v1.966h-3.264v2.071H407.8v1.966h-6.331Z" transform="translate(-384.988 -448.777)" fill="#d47645"/>
      <path id="패스_3548" data-name="패스 3548" d="M449.866,448.777h3.408c2.019,0,3.631.538,3.631,2.412a2.278,2.278,0,0,1-1.271,2.11v.053a2.213,2.213,0,0,1,1.73,2.294c0,1.992-1.691,2.884-3.814,2.884h-3.684Zm3.316,3.867c1,0,1.442-.432,1.442-1.1,0-.695-.459-.983-1.442-.983h-.97v2.084Zm.2,4.09c1.127,0,1.7-.406,1.7-1.245,0-.8-.564-1.114-1.7-1.114h-1.167v2.359Z" transform="translate(-421.851 -448.777)" fill="#d47645"/>
    </g>
  </g>
</svg>
