<svg xmlns="http://www.w3.org/2000/svg" width="48" height="48" viewBox="0 0 48 48">
    <g data-name="그룹 155">
        <path data-name="패스 139" d="M43.431 37.12a4.361 4.361 0 1 0 4.361 4.361 4.365 4.365 0 0 0-4.361-4.361z" transform="translate(-27.055 -25.705)" style="fill:#fff"/>
        <path data-name="사각형 394" transform="translate(41.742 30.665)" style="fill:#fff" d="M0 0h6.255v2.248H0z"/>
        <path data-name="패스 140" d="M98.45 89.284a.474.474 0 1 0 .474-.474.474.474 0 0 0-.474.474z" transform="translate(-68.175 -61.5)" style="fill:#fff"/>
        <path data-name="사각형 395" transform="translate(41.742 27.996)" style="fill:#fff" d="M0 0h6.255v2.248H0z"/>
        <path data-name="패스 141" d="M106.1 93.99h-6.905v-8.41H95.96a.882.882 0 0 1-.852.683.895.895 0 1 1 0-1.79.882.882 0 0 1 .852.686h3.235V82.91h-.707a.885.885 0 0 1-.852.683.895.895 0 1 1 0-1.79.882.882 0 0 1 .852.686h.707v-2.248H95.96a.882.882 0 0 1-.852.683.895.895 0 1 1 0-1.79.882.882 0 0 1 .852.683h3.235v-2.248h-.707a.885.885 0 0 1-.852.683.895.895 0 1 1 0-1.79.882.882 0 0 1 .852.686h.707v-1.7H92.94v24.792h19.416V85.576H106.1v8.411z" transform="translate(-64.36 -52.248)" style="fill:#fff"/>
        <path data-name="패스 142" d="M106.67 80.6a.474.474 0 1 0 .474-.474.474.474 0 0 0-.474.474z" transform="translate(-73.867 -55.489)" style="fill:#fff"/>
        <path data-name="패스 143" d="M98.45 106.644a.474.474 0 1 0 .474-.474.474.474 0 0 0-.474.474z" transform="translate(-68.175 -73.521)" style="fill:#fff"/>
        <path data-name="사각형 396" transform="translate(41.742 14.653)" style="fill:#fff" d="M0 0h6.255v2.248H0z"/>
        <path data-name="패스 144" d="M0 0v48h19.416V23.208h-6.254v18.534H6.255V6.255h35.487v7.977H48V0z" style="fill:#fff"/>
        <path data-name="사각형 397" transform="translate(41.742 25.327)" style="fill:#fff" d="M0 0h6.255v2.248H0z"/>
        <path data-name="패스 145" d="M106.67 97.964a.474.474 0 1 0 .474-.474.474.474 0 0 0-.474.474z" transform="translate(-73.867 -67.51)" style="fill:#fff"/>
        <path data-name="사각형 398" transform="translate(41.742 17.322)" style="fill:#fff" d="M0 0h6.255v7.583H0z"/>
        <path data-name="패스 146" d="M106.67 45.894a.474.474 0 1 0 .474-.474.474.474 0 0 0-.474.474z" transform="translate(-73.867 -31.453)" style="fill:#fff"/>
        <path data-name="패스 147" d="M91.912 42.721h3.635V41.14H83.44v6.255h12.107v-1.584h-6.163a.882.882 0 0 1-.852.686.895.895 0 1 1 0-1.79.882.882 0 0 1 .852.686h6.163v-2.248h-3.635a.882.882 0 0 1-.852.683.895.895 0 1 1 0-1.79.882.882 0 0 1 .852.686z" transform="translate(-57.781 -28.489)" style="fill:#fff"/>
        <path data-name="패스 148" d="M98.45 54.574a.474.474 0 1 0 .474-.474.474.474 0 0 0-.474.474z" transform="translate(-68.175 -37.463)" style="fill:#fff"/>
    </g>
</svg>
